<?xml version="1.0" encoding="iso-8859-1"?>
<!-- Generator: Adobe Illustrator 16.0.0, SVG Export Plug-In . SVG Version: 6.00 Build 0)  -->
<!DOCTYPE svg PUBLIC "-//W3C//DTD SVG 1.1//EN" "http://www.w3.org/Graphics/SVG/1.1/DTD/svg11.dtd">
<svg version="1.1" id="Capa_1" xmlns="http://www.w3.org/2000/svg" xmlns:xlink="http://www.w3.org/1999/xlink" x="0px" y="0px"
	 width="31.998px" height="31.998px" viewBox="0 0 31.998 31.998" style="enable-background:new 0 0 31.998 31.998;"
	 xml:space="preserve" fill='white'>
<g>
	<path d="M31.399,27.995c-0.113-1.791-3.884-2.575-3.884-2.575s3.36-1.493,1.009-4.331c0.41-5.451-7.99-0.673-7.953-2.313
		c0.037-1.644,5.115-2.129,5.227-4.367c0.111-2.241-1.83-3.324-1.83-3.324s1.083-0.896,0.784-3.061
		c-0.3-2.165-2.017-2.278-2.017-2.278s1.605-3.024,1.084-4.479c-1.084-4.555-7.917,4.667-8.923,4.479
		c-1.008-0.187,0.299-5.115-1.904-5.04c-2.203,0.074-4.032,2.65-4.48,5.563c-0.447,2.911-1.605,10.901,3.062,15.68
		c0.474,0.389,0.946,0.809,1.412,1.236c-1.166-0.564-2.094-0.911-2.022-0.823c-0.119,0.013-0.231,0.048-0.331,0.104
		c-2.401-1.53-4.458-3.561-5.139-4.76c-0.291-0.512-0.433-1.926-0.583-3.424c-0.175-1.738-0.37-3.675-0.848-4.737
		c0.065-0.071,0.108-0.167,0.108-0.271c0-0.229-0.184-0.411-0.411-0.411c-0.226,0-0.41,0.183-0.41,0.411
		c0,0.226,0.184,0.408,0.41,0.408c0.039,0,0.074-0.012,0.11-0.021c0.453,1.021,0.645,2.93,0.817,4.645
		c0.159,1.588,0.297,2.959,0.611,3.51c0.621,1.093,2.349,2.854,4.443,4.325c-1.48-0.426-7.421-2.276-8.543-5.149
		c0.124-0.07,0.212-0.197,0.212-0.351c0-0.227-0.184-0.409-0.411-0.409c-0.226,0-0.41,0.184-0.41,0.409
		c0,0.221,0.174,0.396,0.392,0.406c1.287,3.385,8.691,5.311,9.014,5.394l0.405,0.213c-0.133,0.152-0.216,0.35-0.216,0.568
		c0,0.478,0.388,0.866,0.868,0.866c0.349,0,0.648-0.207,0.786-0.503c0.25,0.338,0.805,0.971,1.847,1.567
		c1.512,0.867,4.998,1.428,5.32,5.586c0.055-0.495,0.354-1.506-0.348-2.857c2.102,0.769,7.141-0.781,7.141-0.781
		s2.128,2.837,2.501,4.031c0.373,1.195,1.194,1.232,1.308-0.373c0.111-1.604-3.1-4.219-3.1-4.219l0.672-0.374
		c0,0,2.314,1.53,2.912,2.427C30.688,29.49,31.511,29.787,31.399,27.995z"/>
</g>
<g>
</g>
<g>
</g>
<g>
</g>
<g>
</g>
<g>
</g>
<g>
</g>
<g>
</g>
<g>
</g>
<g>
</g>
<g>
</g>
<g>
</g>
<g>
</g>
<g>
</g>
<g>
</g>
<g>
</g>
</svg>
